<svg xmlns="http://www.w3.org/2000/svg" width="100.062" height="83.492" viewBox="0 0 100.062 83.492">
  <path id="Path_3805" data-name="Path 3805" d="M93.455,79.548A7.773,7.773,0,0,0,94.6,75.737c4.347-2.511,4.922-9.907.922-13.3a7.755,7.755,0,0,0-.357-8.247,6.74,6.74,0,0,0,4.9-6.475c0-16.957-19.374-23.561-36.264-25.854a1.48,1.48,0,1,0-.4,2.933c14.958,2.031,33.7,7.76,33.7,22.92a3.77,3.77,0,0,1-3.764,3.764H6.726a3.77,3.77,0,0,1-3.764-3.764c0-9.718,7.553-16.682,22.448-20.7A104.914,104.914,0,0,1,50.088,23.8c.324,0,3.271.01,7.483.361a1.481,1.481,0,1,0,.247-2.951c-2.559-.213-5.266-.358-7.845-.371-12.909,0-31.99,2.965-42.111,11.151C2.645,36.209,0,41.5,0,47.716a6.741,6.741,0,0,0,4.868,6.465,7.773,7.773,0,0,0-.31,8.234A8.834,8.834,0,0,0,3,73.192a8.173,8.173,0,0,0,2.464,2.3,7.794,7.794,0,0,0,1.144,4.057A7.847,7.847,0,0,0,0,86.957a22.1,22.1,0,0,0,7.3,16.986,1.48,1.48,0,0,0,2-2.185,19.248,19.248,0,0,1-6.333-14.8c0-2.556,2.471-4.637,5.508-4.637h8.457L16.9,89.612A7.46,7.46,0,0,0,24.367,97.1h.156a7.637,7.637,0,0,0,7.643-7.614V84.571a.624.624,0,0,1,.624-.624,3.579,3.579,0,0,0,3-1.627h9.244c.877.647,3.433,4.669,8.988,4.669s8.116-4.024,8.99-4.669H91.594c3.006,0,5.478,2.059,5.508,4.592a1.478,1.478,0,0,0,1.478,1.463H98.6a1.481,1.481,0,0,0,1.465-1.5A7.879,7.879,0,0,0,93.455,79.548ZM52.025,54.441h39.2a4.8,4.8,0,0,1-2.537,8.909c-31.815,0-2.479-.082-46.435,0C45.222,61.772,46.145,60.12,52.025,54.441ZM5.533,71.661a5.906,5.906,0,0,1,.959-7,8.011,8.011,0,0,0,5,1.757h7.742A2.66,2.66,0,0,1,21.888,68.9a5.434,5.434,0,0,0-1.834-.32c-2.23,0-3.143.983-9.558,5.178A5.6,5.6,0,0,1,5.533,71.661Zm11.643,7.7H10.357a4.875,4.875,0,0,1-1.794-2.722c.79.124,2.583.233,3.255-.205l6.794-4.441a2.716,2.716,0,0,1,3.281.274v3.5a1,1,0,0,1-1,1A3.969,3.969,0,0,0,17.176,79.359Zm16.236-4.582v5.585a.623.623,0,0,1-.622.624,3.591,3.591,0,0,0-3.585,3.585v4.917a4.738,4.738,0,0,1-8.028,3.328,4.431,4.431,0,0,1-1.313-3.283c.007-2.149.014-4.636.027-8.812a1,1,0,0,1,1-1,3.967,3.967,0,0,0,3.962-3.962v-6.69a5.621,5.621,0,0,0-3.247-5.091c-1.867-.88-2.974-.385-10.113-.527a4.893,4.893,0,0,1-2.73-9.013H19.355l6.429,6.429a13.9,13.9,0,0,0,9.239,4.09C32.829,66.731,33.541,69.181,33.412,74.778Zm-5.533-16-4.337-4.337h24.3L43.5,58.778A11.041,11.041,0,0,1,27.879,58.778Zm8.494,20.581V76.238L37.81,75.1l4.262,4.262Zm22.4,2.961a7.456,7.456,0,0,1-10.03-.474l-8.6-8.6c.527-.262,2.2-2.521,4.359-.92l6.179,4.58a5.526,5.526,0,0,0,6.948-.176l5.417-4.406a2.552,2.552,0,0,1,3.162-.2l1.81,1.182C57.809,83.295,59.058,82.088,58.776,82.32Zm30.93-2.961H65.971l4.471-4.471,1.846,1.206a6.074,6.074,0,0,0,4.888,1.255,6.7,6.7,0,0,0,4.078-3.121c.992-1.576,2.688-2.2,4.185-1.1,2.438,1.61,3.623,3.243,6.094,3.366A4.868,4.868,0,0,1,89.706,79.359Zm.509-6.38c-3.15-2.326-3.026-2.24-3.2-2.363-2.721-1.858-6.276-1.11-8.265,2.035a3.778,3.778,0,0,1-2.2,1.8c-1.3.287-1.448-.059-8.719-4.815a5.486,5.486,0,0,0-6.648.383l-5.33,4.336-.032.026-.007.006L55.8,74.4l0,0,0,0-.007.006-.03.025a2.578,2.578,0,0,1-3.318.095c-6.171-4.574-7.1-5.7-9.5-5.721-2.033-.014-3.315.984-4.905,2.333l-1.664,1.321V69.072c0-3.919.841-2.657,52.315-2.657A7.787,7.787,0,0,0,93.6,64.69a5.831,5.831,0,0,1,1.3,6.165C94.1,73.081,92.05,74.332,90.216,72.979Z" transform="translate(0 -20.838)"/>
</svg>
